<svg width="18" height="7" xmlns="http://www.w3.org/2000/svg"><path d="M17.032 2.99c.315-.528.355-1.277.12-1.844-.218-.587-.809-.91-1.42-1.033-.572-.12-1.182-.12-1.754-.06-.689.06-1.379.242-1.753.83-.158.243-.316.546-.158.81.118.202.355.222.571.162.316-.08.296-.324.454-.567.137-.223.433-.304.69-.345.472-.1 1.024-.08 1.516-.02.276.041.591.081.808.264.158.182.217.485.237.728 0 .264-.059.588-.276.77-.217.182-.46.255-.717.295a3.57 3.57 0 0 1-.67.041c-.217 0-.394 0-.55.162-.218.223-.14.63.117.751.157.081.335.06.492.06.434 0 1.091-.074 1.367.291.296.384.315 1.194-.138 1.478-.492.304-1.26.283-1.812.243-.257-.02-.552-.04-.789-.182a.948.948 0 0 1-.275-.223c-.099-.122-.099-.304-.217-.425-.158-.182-.434-.182-.63-.06-.257.161-.237.485-.139.728.552 1.154 2.148 1.235 3.291 1.114.611-.08 1.241-.264 1.616-.77.374-.526.394-1.316.177-1.903-.118-.345-.335-.547-.572-.77a2.67 2.67 0 0 0 .414-.526ZM2.965.343 2.905.22a.158.158 0 0 0-.083-.08.317.317 0 0 0-.16-.082C2.62.037 2.6.037 2.56.037H2.4c-.04 0-.08.02-.14.041a.402.402 0 0 0-.102.082L.11 2.216c-.02.041-.06.082-.06.103-.04.061-.04.122-.04.184-.022.061 0 .123 0 .164.02.061.06.102.1.163.04.042.08.082.161.103a.494.494 0 0 0 .343 0c.061-.02.101-.06.162-.103l1.22-1.257V6.57c0 .041.02.082.04.144.02.061.06.102.101.143a.31.31 0 0 0 .161.102A.698.698 0 0 0 2.5 7c.061 0 .142-.02.182-.04.061-.02.101-.062.162-.103.04-.04.06-.082.101-.143.02-.062.04-.123.04-.185V.426s-.02-.04-.02-.082Zm7.01 5.971a.487.487 0 0 1-.104.54.5.5 0 0 1-.349.144H5.497a.506.506 0 0 1-.353-.143A.484.484 0 0 1 5 6.51c0-.242.018-.47.052-.679.036-.21.09-.412.16-.597.072-.186.162-.36.27-.519.108-.16.238-.309.386-.439.12-.108.252-.207.392-.293.137-.083.277-.158.421-.222.14-.063.282-.12.427-.173.141-.052.284-.102.428-.148l.327-.113a4.295 4.295 0 0 0 .572-.247 1.269 1.269 0 0 0 .344-.272.803.803 0 0 0 .116-.172c.037-.07.07-.16.095-.265.026-.104.04-.232.04-.378 0-.098-.007-.188-.02-.272a1.024 1.024 0 0 0-.052-.21.596.596 0 0 0-.076-.149.728.728 0 0 0-.294-.223 1.473 1.473 0 0 0-.272-.086 2.815 2.815 0 0 0-.359-.054 5.156 5.156 0 0 0-.896 0c-.133.012-.253.03-.362.054a1.3 1.3 0 0 0-.268.085.797.797 0 0 0-.188.111.503.503 0 0 0-.106.111.656.656 0 0 0-.08.154.962.962 0 0 0-.05.205 1.936 1.936 0 0 0-.018.274.474.474 0 0 1-.145.347.497.497 0 0 1-.802-.147.495.495 0 0 1-.042-.2c0-.333.051-.628.153-.877.105-.259.27-.475.488-.645.212-.164.48-.286.797-.362.605-.145 1.543-.144 2.143 0a2.1 2.1 0 0 1 .797.362c.218.17.382.387.485.647.1.25.151.543.151.875 0 .18-.015.352-.043.511-.03.161-.077.316-.14.461a1.916 1.916 0 0 1-.236.398c-.093.12-.2.231-.32.332a2.675 2.675 0 0 1-.34.23 3.806 3.806 0 0 1-.356.177 5.893 5.893 0 0 1-.369.146l-.36.124a18.82 18.82 0 0 0-.379.131 4.502 4.502 0 0 0-.354.142c-.11.05-.22.106-.324.167a1.765 1.765 0 0 0-.27.197 1.605 1.605 0 0 0-.369.518 1.806 1.806 0 0 0-.134.488h3.502a.482.482 0 0 1 .347.144.512.512 0 0 1 .106.157Z" fill="#00c18d" fill-rule="evenodd"/></svg>