<svg width="24" height="25" xmlns="http://www.w3.org/2000/svg"><path d="M10.7 7.023c.645 0 1.205.057 1.681.172.491.119.902.305 1.231.562.336.261.585.594.744.994.156.388.232.842.232 1.361 0 .282-.022.548-.067.797a3.138 3.138 0 0 1-.215.715 3.03 3.03 0 0 1-.364.615 3.397 3.397 0 0 1-.5.521 4.141 4.141 0 0 1-1.09.634c-.378.15-.756.29-1.137.422-.2.067-.4.136-.6.208a7.63 7.63 0 0 0-.566.229c-.18.081-.354.171-.52.27-.16.093-.307.2-.443.323a2.369 2.369 0 0 0-.605.848 3.005 3.005 0 0 0-.16.496l-.038.184-.033.214 5.669.002.108.011a.682.682 0 0 1 .356.192.692.692 0 0 1 .205.5c0 .19-.07.36-.205.493a.681.681 0 0 1-.381.197l-.11.008-6.403-.001-.11-.011a.684.684 0 0 1-.363-.193.683.683 0 0 1-.205-.492c0-.38.027-.735.082-1.066a4.71 4.71 0 0 1 .25-.935c.111-.29.25-.56.416-.807.167-.25.367-.478.595-.678a4.09 4.09 0 0 1 .614-.462 5.82 5.82 0 0 1 .656-.349c.22-.1.443-.19.67-.273l.337-.12.337-.113c.353-.118.692-.24 1.017-.368.3-.119.557-.267.769-.442.135-.113.28-.29.434-.53.133-.21.206-.556.206-1.039 0-.324-.04-.59-.117-.794a1.003 1.003 0 0 0-.327-.455c-.173-.143-.422-.254-.75-.327a6.082 6.082 0 0 0-1.3-.118c-.52 0-.952.04-1.297.118-.326.073-.578.185-.761.333a.968.968 0 0 0-.315.447c-.075.205-.114.47-.114.796a.68.68 0 0 1-.205.493.682.682 0 0 1-.492.205.69.69 0 0 1-.5-.205.683.683 0 0 1-.205-.493c0-.52.078-.974.236-1.363a2.37 2.37 0 0 1 .748-.992c.329-.257.74-.443 1.23-.562.477-.115 1.035-.172 1.675-.172Zm8.765 0c.645 0 1.205.057 1.681.172.491.119.902.305 1.231.562.336.261.585.594.745.994.155.388.231.842.231 1.361 0 .316-.028.608-.084.876a2.683 2.683 0 0 1-.272.75c-.124.224-.28.424-.467.599l-.071.064-.075.062-.06.043.06.042.145.124c.187.173.344.374.468.603.124.226.214.475.272.747a4.2 4.2 0 0 1 .084.873c0 .518-.076.974-.231 1.364a2.34 2.34 0 0 1-.745.999c-.329.256-.74.443-1.23.561-.477.115-1.037.172-1.682.172-.532 0-1.004-.04-1.415-.118-.418-.08-.784-.2-1.101-.362a2.49 2.49 0 0 1-.813-.681 2.545 2.545 0 0 1-.45-.97.689.689 0 0 1 .082-.53.684.684 0 0 1 .428-.315.688.688 0 0 1 .53.083c.129.08.224.191.279.325l.033.103c.035.13.09.263.166.397a.904.904 0 0 0 .327.308c.168.103.404.19.706.255.308.068.718.102 1.228.102.519 0 .953-.04 1.3-.117.33-.074.58-.183.757-.325a1.36 1.36 0 0 0 .292-.375c.092-.157.145-.452.145-.876 0-.42-.053-.711-.145-.87a1.358 1.358 0 0 0-.296-.376c-.174-.14-.425-.251-.755-.327a5.382 5.382 0 0 0-1.046-.118l-.252-.003h-.794a.682.682 0 0 1-.493-.205.683.683 0 0 1-.204-.493.68.68 0 0 1 .204-.492.681.681 0 0 1 .382-.197l.11-.008h.795c.519 0 .953-.04 1.3-.117.328-.074.577-.185.757-.333a1.36 1.36 0 0 0 .292-.375c.092-.158.145-.45.145-.869s-.053-.71-.145-.869a1.357 1.357 0 0 0-.299-.38c-.173-.143-.422-.254-.75-.327a6.082 6.082 0 0 0-1.3-.118c-.49 0-.903.036-1.239.107-.321.067-.573.166-.753.29-.11.078-.198.169-.268.275a1.268 1.268 0 0 0-.166.394.682.682 0 0 1-.314.425.69.69 0 0 1-.532.082.682.682 0 0 1-.425-.314.69.69 0 0 1-.082-.532c.076-.309.196-.587.36-.835a2.41 2.41 0 0 1 .635-.643c.162-.11.342-.206.538-.289.196-.082.41-.15.641-.203a5.65 5.65 0 0 1 .748-.115 9.57 9.57 0 0 1 .857-.037Zm-15.154.05a.712.712 0 0 1 .423.543l.008.106v9.572c0 .189-.07.358-.205.492a.69.69 0 0 1-.5.205.682.682 0 0 1-.492-.205.682.682 0 0 1-.196-.381l-.009-.111V9.412l-1.496 1.521a.688.688 0 0 1-.278.172l-.106.024-.112.009a.686.686 0 0 1-.497-.205.687.687 0 0 1-.204-.496c0-.153.045-.293.131-.412l.073-.084 2.694-2.712a.687.687 0 0 1 .26-.164l.101-.027a.74.74 0 0 1 .405.034ZM22.982.527l.112.006c.402.046.712.34.712.694 0 .355-.31.648-.712.694l-.112.006H5.91l-.112-.006c-.402-.046-.711-.34-.711-.694 0-.355.31-.648.711-.694L5.91.528h17.072Zm.317 22.599.095.006a.7.7 0 0 1 0 1.388l-.095.007h-9l-.095-.007a.7.7 0 0 1 0-1.388l.095-.006h9Zm-13.596 0 .095.006a.7.7 0 0 1 0 1.388l-.095.007h-9l-.095-.007a.7.7 0 0 1 0-1.388l.095-.006h9ZM6.49.527l.11.008c.388.046.686.34.686.694 0 .355-.298.648-.686.694l-.108.006H.797L.69 1.922c-.387-.046-.686-.34-.686-.694C.003.873.302.58.689.534L.797.528h5.694Z" fill="#94A1AD"/></svg>