<svg width="12" height="12" xmlns="http://www.w3.org/2000/svg"><path d="M10.869 1.003H9.47V.512A.5.5 0 0 0 8.972 0a.512.512 0 0 0-.497.512v.491H3.526V.512A.5.5 0 0 0 3.028 0a.512.512 0 0 0-.498.512v.491H1.131C.486 1.003 0 1.558 0 2.295v8.615c0 .559.539 1.069 1.131 1.069h9.738c.592 0 1.131-.51 1.131-1.069V2.295c0-.737-.486-1.292-1.131-1.292Zm.135 4.006v5.796c0 .071-.058.149-.135.149H1.131c-.077 0-.135-.064-.135-.149V5.009h10.008ZM3.028 2.945a.5.5 0 0 0 .498-.513v-.404h4.949v.404a.5.5 0 0 0 .497.513.5.5 0 0 0 .498-.513v-.404h1.399c.077 0 .135.064.135.148v1.795H.996V2.176c0-.07.058-.148.135-.148H2.53v.404a.5.5 0 0 0 .498.513Zm2.804 4.738c.178-.301.201-.731.067-1.056-.123-.337-.457-.523-.803-.592A3.156 3.156 0 0 0 4.103 6c-.39.035-.78.139-.992.476-.09.139-.179.313-.09.464.067.116.201.128.324.093.178-.046.167-.186.256-.325.078-.128.246-.174.391-.197.267-.058.58-.047.858-.012.157.023.335.047.458.151.089.105.122.279.134.418 0 .151-.034.337-.157.441a.775.775 0 0 1-.405.169c-.123.024-.246.024-.379.024-.123 0-.223 0-.313.093-.122.127-.078.361.067.43.089.047.19.035.279.035.245 0 .617-.042.774.167.167.22.178.684-.078.847-.279.174-.714.163-1.026.139-.145-.011-.313-.023-.447-.104-.055-.035-.111-.07-.156-.128-.055-.07-.055-.174-.122-.244-.089-.104-.246-.104-.357-.035-.145.093-.134.279-.078.418.312.662 1.215.709 1.862.639.346-.046.703-.151.915-.441.212-.302.223-.755.1-1.091-.067-.198-.19-.314-.323-.442.089-.093.167-.186.234-.302Zm3.143-1.516-.034-.07a.09.09 0 0 0-.047-.047c-.023-.024-.046-.036-.092-.047-.024-.012-.035-.012-.058-.012h-.093c-.023 0-.046.012-.081.023a.273.273 0 0 0-.058.047l-1.458 1.49c-.012.024-.035.047-.035.059-.023.035-.023.071-.023.106-.012.035 0 .07 0 .094.012.035.035.058.058.094.023.023.046.047.092.058.058.024.14.024.197 0 .035-.011.058-.035.093-.058l.983-1.032v2.864c0 .024.012.047.023.083.012.035.035.058.058.082a.182.182 0 0 0 .093.058.4.4 0 0 0 .116.024.266.266 0 0 0 .104-.024c.035-.011.058-.035.093-.058.023-.024.035-.047.058-.082.011-.036.023-.071.023-.106V6.214s-.012-.023-.012-.047Z" fill="#14b2e2" fill-rule="evenodd"/></svg>