<svg xmlns="http://www.w3.org/2000/svg" width="131" height="80" viewBox="12 14.5 131 80" style="enable-background:new 12 14.5 131 80" xml:space="preserve"><path d="m-5.1 26.8-6.9 6.4-3.6-4.2 11-9h6.2v36h-6.8l.1-29.2zM15 52.7c0-1.1.4-2 1.2-2.8.7-.7 1.8-1.2 2.9-1.2s2 .4 2.9 1.2c.9.7 1.3 1.7 1.3 2.8s-.4 2-1.2 2.8c-.9.7-1.8 1.2-2.9 1.2-.5 0-1.1-.1-1.6-.3-.5-.2-1-.4-1.3-.9-.4-.3-.6-.7-.9-1.3-.3-.4-.4-1-.4-1.5zm14.6-3L43.8 36l1.3-1.3c.4-.4.9-1 1.2-1.5.3-.5.7-1.1.9-1.6.2-.5.3-1.2.3-1.8 0-.7-.1-1.4-.4-2s-.6-1.1-1.2-1.5c-.4-.4-1.1-.7-1.7-1-.6-.2-1.3-.3-2-.3-1.5 0-2.8.4-3.9 1.3-1 .9-1.6 2.1-1.8 3.6l-6.4-.6c.1-1.7.5-3.2 1.2-4.5.6-1.3 1.5-2.4 2.6-3.2 1.1-.9 2.2-1.5 3.7-1.9 1.5-.4 2.9-.6 4.6-.6s3.2.2 4.6.6c1.4.4 2.7 1.1 3.7 1.9 1.1.9 1.9 1.9 2.6 3.2.6 1.3 1 2.8 1 4.6 0 2.2-.5 4.3-1.6 5.9-1.1 1.7-2.4 3.5-4.1 5L37.2 51h16.4v5h-24v-6.3zm39-14.7h1.6c.9 0 1.7-.3 2.6-.4s1.6-.5 2.2-.8 1.2-.9 1.6-1.6c.4-.6.6-1.5.6-2.6 0-1.4-.4-2.6-1.4-3.4-1-.9-2.2-1.3-3.7-1.3-1.3 0-2.4.3-3.3 1.1-1 .7-1.7 1.7-2.1 3l-6.5-1.7c.4-1.3 1-2.5 1.7-3.5s1.6-1.8 2.7-2.5c1.1-.6 2.1-1.1 3.4-1.4s2.6-.4 3.9-.4c1.6 0 3.1.2 4.5.6 1.4.4 2.7 1.1 3.7 1.8 1.1.9 1.9 1.8 2.6 3 .6 1.2 1 2.7 1 4.3 0 1.9-.4 3.6-1.5 5.2-1.1 1.5-2.5 2.6-4.5 3v.1c2 .3 3.9 1.3 5.1 3 1.2 1.6 1.8 3.6 1.8 5.9 0 1.7-.4 3.3-1 4.6-.6 1.3-1.6 2.5-2.7 3.3-1.2.9-2.5 1.6-4 2s-3 .6-4.6.6c-1.5 0-2.9-.2-4.3-.5-1.3-.3-2.6-.9-3.6-1.5-1.1-.6-2-1.6-2.8-2.7-.7-1.1-1.4-2.4-1.8-3.9l6.5-1.7c.4 1.5 1.1 2.7 2 3.5 1 .9 2.2 1.3 3.9 1.3.9 0 1.6-.1 2.4-.4.7-.3 1.4-.6 1.9-1.2.5-.5 1-1.1 1.3-1.8.3-.7.5-1.5.5-2.4 0-1.2-.2-2.1-.7-2.9-.5-.7-1.2-1.3-1.9-1.7-.7-.4-1.6-.8-2.6-.9s-1.9-.3-2.8-.3h-1.5l-.2-4.8z" style="fill:#94a1ad" transform="translate(43 35)"/><path d="M-30.5-4v-14h10v14h-10zm10 0v-14h10v14h-10zm10 0v-14h10v14h-10zm10 0v-14h10v14h-10zm15 0v-14h10v14h-10zm10 0v-14h10v14h-10zm15 0v-14h10v14h-10zm10 0v-14h10v14h-10zm10 0v-14h10v14h-10zm10 0v-14h10v14h-10zm10 0v-14h10v14h-10zm10 0v-14h10v14h-10z" style="opacity:.5;fill:#9faab5;enable-background:new" transform="translate(43 35)"/></svg>