<svg width="14" height="14" fill="none" xmlns="http://www.w3.org/2000/svg"><path d="M8 4.498c0-.209.169-.378.377-.378h3.246a.377.377 0 1 1 0 .755H8.377A.377.377 0 0 1 8 4.498Zm0 4.127c0-.208.169-.377.377-.377h3.246a.377.377 0 1 1 0 .755H8.377A.377.377 0 0 1 8 8.625Zm0 1.75c0-.208.169-.377.377-.377h3.246a.377.377 0 1 1 0 .755H8.377A.377.377 0 0 1 8 10.375ZM4.377 2.877a.377.377 0 1 0-.754 0v1.245H2.377a.377.377 0 1 0 0 .755h1.246v1.246a.377.377 0 1 0 .754 0V4.877h1.246a.377.377 0 1 0 0-.755H4.377V2.877ZM5.399 8.62a.377.377 0 1 0-.534-.534l-.88.88-.88-.88a.377.377 0 1 0-.534.534l.88.88-.88.881a.377.377 0 1 0 .533.534l.88-.881.882.88a.377.377 0 0 0 .533-.533l-.88-.88.88-.881Z" fill="#00C18D"/><path fill-rule="evenodd" clip-rule="evenodd" d="M3 0a3 3 0 0 0-3 3v8a3 3 0 0 0 3 3h8a3 3 0 0 0 3-3V3a3 3 0 0 0-3-3H3Zm8 .75H3A2.25 2.25 0 0 0 .75 3v8A2.25 2.25 0 0 0 3 13.25h8A2.25 2.25 0 0 0 13.25 11V3A2.25 2.25 0 0 0 11 .75Z" fill="#00C18D"/></svg>