<svg width="14" height="15" fill="none" xmlns="http://www.w3.org/2000/svg"><path d="m12.1.333.1.1v6.984c0 .035-.008.08-.032.126a.25.25 0 0 1-.235.134c-.156 0-.235-.089-.259-.2l-.007-.06-.017-4.657H1.817c-.305 0-.513-.021-.707-.092l-.082-.033-.094-.047-.045-.027-.024-.017-.015 9.948c0 .53.279.818.854.876l.111.008.118.003h9.734v-.2l.008-.033.014-.037.024-.039a.26.26 0 0 1 .22-.105c.136 0 .215.068.25.158l.014.046.003.024v.604l-.1.1H1.933c-.91 0-1.49-.416-1.586-1.119l-.01-.102-.004-.104V1.542l.005-.103C.39.879.838.44 1.418.35l.11-.013.105-.004H12.1Zm-5 5.203a.68.68 0 0 1 .218.035l.075.029.088.043 5.152 2.785c.137.079.193.117.246.184a.467.467 0 0 1 .104.285c0 .129-.057.225-.172.334a.699.699 0 0 1-.147.086l-.087.033-.086.026-.765.19c-.072.02-.136.04-.194.062l-.069.03 1.45 1.549.056.073a.816.816 0 0 1 .148.544.87.87 0 0 1-.315.661.886.886 0 0 1-.619.235.958.958 0 0 1-.53-.169l-.08-.058-.08-.075-1.4-1.487-.09.13-.15.226-.531.886a.648.648 0 0 1-.197.242.509.509 0 0 1-.292.098c-.13 0-.23-.054-.343-.163a.662.662 0 0 1-.091-.141l-.035-.085-.027-.082L6.686 6.23l-.017-.075a.712.712 0 0 1-.019-.152c0-.13.029-.227.107-.32a.436.436 0 0 1 .343-.146Zm.104.52.009.045 1.662 5.851.557-.929.076-.12c.053-.082.112-.17.175-.258l.195-.267a.24.24 0 0 1 .205-.117c.033 0 .065.004.1.016l.052.023.055.04 1.618 1.72a.42.42 0 0 0 .573.026.437.437 0 0 0 .136-.293.332.332 0 0 0-.039-.15l-.028-.048-.04-.052-1.662-1.778c-.045-.042-.06-.081-.063-.146l-.002-.054.004-.042a.2.2 0 0 1 .056-.104l.036-.036.02-.015c.17-.1.309-.172.444-.225l.1-.036.133-.037.8-.2-5.172-2.813Zm-1.206.482c.02.096-.026.192-.114.251l-.047.027-.054.016-.964.159a.264.264 0 0 1-.3-.205c-.02-.097.026-.192.113-.252l.047-.026.055-.016.964-.16a.264.264 0 0 1 .3.206Zm2.356-2.744.076.037a.246.246 0 0 1 .108.157l.006.052-.003.054-.015.053-.367.875c-.055.13-.211.185-.345.134a.249.249 0 0 1-.158-.231l.003-.055.015-.053.367-.875a.258.258 0 0 1 .313-.148Zm-2.656.148.045.024.05.046.61.724c.11.106.091.29-.017.367a.25.25 0 0 1-.28.044l-.048-.025-.051-.042-.61-.724c-.11-.106-.091-.291.017-.368a.265.265 0 0 1 .284-.046Zm5.968-3.09H1.683c-.399 0-.722.216-.798.535l-.014.075-.004.085.001.087c0 .008.002.015.003.023l.01.044c.06.274.295.474.6.527l.085.01.084.004h10.016V.852Z" fill="#B0BECA" stroke="#B0BECA" stroke-width=".33"/></svg>