<svg width="16" height="14" fill="none" xmlns="http://www.w3.org/2000/svg"><path d="M7.935.333a2.811 2.811 0 0 1 2.795 3.153l-.015.1.162.102a5.328 5.328 0 0 1 2.36 3.689l.024.198.012.122.065.02a2.809 2.809 0 0 1 1.914 2.379l.011.144.004.14a2.811 2.811 0 0 1-2.817 2.806 2.812 2.812 0 0 1-1.565-.473l-.077-.054-.026.017a5.363 5.363 0 0 1-2.398.799l-.233.014-.216.004a5.33 5.33 0 0 1-2.741-.749l-.131-.082-.089.06a2.803 2.803 0 0 1-1.137.402l-.176.017-.177.005a2.811 2.811 0 0 1-2.817-2.805c0-1.198.76-2.248 1.867-2.642l.063-.022a5.326 5.326 0 0 1 2.295-3.92l.159-.106.104-.064-.015-.1-.01-.087-.006-.086-.006-.175A2.811 2.811 0 0 1 7.935.333Zm2.642 3.777-.037.098a2.818 2.818 0 0 1-2.605 1.737 2.818 2.818 0 0 1-2.588-1.696l-.055-.138-.054.034a4.808 4.808 0 0 0-2.1 3.353l-.008.06.028-.004c.054-.006.107-.011.162-.014l.164-.005A2.811 2.811 0 0 1 6.3 10.341a2.79 2.79 0 0 1-.698 1.85l-.118.124.067.04a4.806 4.806 0 0 0 2.173.618l.211.005c.843 0 1.66-.218 2.391-.631l.073-.044-.014-.015a2.789 2.789 0 0 1-.748-1.755l-.004-.153a2.811 2.811 0 0 1 2.817-2.805l.141.003.15.011-.005-.057a4.81 4.81 0 0 0-2.11-3.391l-.049-.031Zm1.873 3.98c-1.27 0-2.3 1.025-2.3 2.29 0 1.265 1.03 2.29 2.3 2.29 1.27 0 2.3-1.025 2.3-2.29 0-1.265-1.03-2.29-2.3-2.29Zm-8.966-.04c-1.27 0-2.3 1.026-2.3 2.29 0 1.265 1.03 2.29 2.3 2.29 1.27 0 2.3-1.025 2.3-2.29 0-1.264-1.03-2.29-2.3-2.29ZM7.935.85c-1.27 0-2.3 1.025-2.3 2.29 0 1.265 1.03 2.29 2.3 2.29 1.27 0 2.3-1.025 2.3-2.29 0-1.265-1.03-2.29-2.3-2.29Z" fill="#B0BECA" stroke="#B0BECA" stroke-width=".33"/></svg>