<svg width="12" height="14" fill="none" xmlns="http://www.w3.org/2000/svg"><path d="m10.997 13.088.1.1v.285l-.1.1H.785l-.1-.1v-.285l.1-.1h10.212ZM3.11 5.563l.1.1v.3l-.1.1h-.745v5.886h.745l.1.1v.3l-.1.1H.802l-.1-.1v-.3l.1-.1h.896V6.063H.802l-.1-.1v-.3l.1-.1H3.11Zm4.24 0 .1.1v.3l-.1.1H6.164v5.886h1.184l.1.1v.3l-.1.1H4.374l-.1-.1v-.3l.1-.1h1.124V6.063H4.374l-.1-.1v-.3l.1-.1h2.975Zm3.6 0 .1.1v.3l-.1.1h-.785v5.886h.785l.1.1v.3l-.1.1H8.64l-.1-.1v-.3l.1-.1h.857V6.063H8.64l-.1-.1v-.3l.1-.1h2.309ZM5.994 1.01l.07.023.058.032 4.804 3.18a.403.403 0 0 1-.086.713l-.063.017-.065.005H1.059c-.339 0-.506-.396-.307-.65l.042-.045.052-.04 4.848-3.181a.388.388 0 0 1 .3-.054Zm-.087.509L1.394 4.48h8.985L5.907 1.519Z" fill="#B0BECA" stroke="#B0BECA" stroke-width=".33"/></svg>