<svg width="16" height="16" fill="none" xmlns="http://www.w3.org/2000/svg"><path fill-rule="evenodd" clip-rule="evenodd" d="M9.728 4.24a1.454 1.454 0 1 0-1.451-1.553l-.003.05V4.24h1.454ZM6.273 7.727a1.455 1.455 0 0 0 1.45-1.354l.003-.05V2.787a1.454 1.454 0 0 0-2.904-.1l-.003.05v3.536a1.451 1.451 0 0 0 1.404 1.452l.05.001Zm3.454-3.78h-1.16V2.79l.002-.046a1.16 1.16 0 1 1 1.204 1.201l-.046.001ZM6.273 7.432l-.046-.001a1.159 1.159 0 0 1-1.113-1.112l-.001-.046V2.745a1.16 1.16 0 0 1 2.318-.003l.001.045v3.527a1.16 1.16 0 0 1-1.113 1.117h-.046Zm6.94.295a1.454 1.454 0 0 0 .1-2.905l-.05-.002-.05-.001H9.726a1.454 1.454 0 0 0-.1 2.904l.05.003h3.536Zm-8.971 0V6.273a1.454 1.454 0 1 0-1.555 1.45l.05.003h1.505Zm8.97-.295H9.687a1.16 1.16 0 0 1-.004-2.318l.046-.001h3.527a1.16 1.16 0 0 1-.042 2.32Zm-10.422 0h-.045a1.16 1.16 0 1 1 1.202-1.205v1.206H2.79Zm3.482 3.75a1.454 1.454 0 0 0 .1-2.905l-.05-.003H2.788a1.454 1.454 0 0 0-.1 2.904l.05.003h3.534Zm6.94 0a1.454 1.454 0 0 0 .1-2.905l-.049-.003h-1.505v1.454c0 .785.624 1.426 1.404 1.453h.05Zm-3.484 3.485a1.455 1.455 0 0 0 1.45-1.354l.003-.05V9.728a1.454 1.454 0 0 0-2.904-.1l-.003.05v3.535a1.454 1.454 0 0 0 1.404 1.453h.05Zm-3.456-3.78H2.745a1.16 1.16 0 0 1-.004-2.318l.046-.001h3.527a1.16 1.16 0 0 1 .003 2.318l-.045.001Zm6.94 0h-.045a1.16 1.16 0 0 1-1.114-1.113V8.568h1.202a1.16 1.16 0 0 1 .003 2.318l-.046.001Zm-3.484 3.486-.046-.002A1.16 1.16 0 0 1 8.57 13.26l-.001-.046V9.685a1.16 1.16 0 0 1 2.318-.003l.001.046v3.527a1.16 1.16 0 0 1-1.113 1.116l-.046.002Zm-3.453.294.05-.001a1.456 1.456 0 0 0 1.398-1.353l.003-.05v-1.504H6.273a1.454 1.454 0 0 0-.05 2.907h.053Zm-.005-.294-.044-.002a1.16 1.16 0 0 1-1.11-1.065l-.003-.048v-.045a1.16 1.16 0 0 1 1.114-1.159h1.205v1.201a1.16 1.16 0 0 1-1.068 1.114l-.047.002-.047.002Z" fill="#B0BECA"/><path d="M9.728 4.24v.166-.165Zm1.454-1.453h-.165.165ZM9.727 1.333v-.165.165Zm-1.45 1.354-.165-.011v.002l.165.01Zm-.003.05-.165-.009v.006l.165.003Zm0 .05-.166-.003v.003h.165Zm0 1.454h-.166v.165h.165V4.24ZM6.272 7.726l-.003.165h.003v-.165Zm1.45-1.354.165.011V6.38l-.165-.008Zm.003-.05.165.009v-.006l-.165-.003Zm0-.05.166.002v-.002h-.165Zm0-3.485h-.164.165ZM6.273 1.333v-.165.165Zm-1.45 1.355-.165-.012v.003l.165.009Zm-.003.05-.165-.009v.006l.165.002Zm0 .05-.166-.003v.003h.165Zm0 3.485h.164-.165Zm1.404 1.452-.006.165h.003l.003-.165Zm3.504-3.779v.165h.004l-.004-.165Zm-1.16 0h-.164v.165h.165v-.165Zm0-1.156-.164-.003v.003h.165Zm.002-.046-.165-.005v.003l.165.002Zm1.158-1.116v-.165.165Zm1.16 1.16h-.165.165ZM9.773 3.944l.003.165h.004l-.007-.165Zm-3.5 3.487-.004.165h.007l-.003-.165Zm-.046-.001-.006.165h.003l.003-.165ZM5.114 6.319l-.165.004v.003l.165-.007Zm-.001-.046h-.165v.003l.165-.003Zm0-3.483-.165-.002v.002h.165Zm0-.045-.164-.006v.003l.165.003Zm1.16-1.117v-.165h-.001v.165ZM7.43 2.742l.165-.003v-.004l-.165.007Zm.001.045h.165v-.003l-.165.003Zm0 3.482.165.003v-.003h-.165Zm0 .045.164.006v-.003l-.165-.003ZM6.318 7.431l.004.165h.003l-.007-.165Zm6.894.296v.165-.165Zm1.454-1.454h-.165.165Zm-1.354-1.45.011-.165h-.002l-.01.164Zm-.05-.003.009-.165h-.006l-.003.165Zm-.05-.001.002-.165h-.003v.165Zm-3.486 0v-.165.165ZM8.274 6.273h.165-.165Zm1.354 1.45-.012.165h.003l.009-.165Zm.05.003-.01.165h.006l.003-.165Zm.05 0-.003.166h.003v-.165Zm-5.486 0v.166h.165v-.165h-.165Zm0-1.453h-.165.165ZM2.788 4.819v-.165.165ZM1.333 6.273h.165-.165Zm1.354 1.45-.011.165h.002l.01-.165Zm.05.003-.009.165h.006l.003-.165Zm.05 0-.002.166h.003v-.165Zm10.426-.294v.165-.165Zm-3.482 0-.003.165h.003v-.165Zm-.045 0-.006.164h.003l.003-.165Zm-1.118-1.16h.165-.165Zm1.114-1.158-.003-.165h-.003l.006.165Zm.046-.001v-.165h-.004l.004.165Zm3.482 0 .003-.165h-.003v.165Zm.045 0 .006-.164h-.003l-.003.165Zm1.117 1.16h-.165.165ZM2.79 7.433l-.003.164h.003v-.165Zm-.045-.002-.006.165h.003l.003-.165ZM1.628 6.273h.165-.165Zm1.16-1.16v-.165.165Zm1.159 1.114.165-.003v-.003l-.165.006Zm0 .046h.166V6.27l-.165.003Zm0 1.16v.164h.165v-.165h-.165Zm2.325 3.749v.165-.165Zm1.454-1.455h-.165.165Zm-1.354-1.45.012-.165H6.38l-.009.165Zm-.05-.003.01-.165h-.006l-.003.165Zm-.05 0 .003-.166h-.003v.165Zm-3.485 0v-.166.165ZM1.333 9.727h.165-.165Zm1.354 1.45-.012.165h.003l.009-.165Zm.05.003-.009.165h.006l.003-.165Zm.05 0-.002.166h.003v-.165Zm10.425 0-.002.166h.002v-.165Zm1.455-1.453h-.165.165Zm-1.354-1.451.011-.165h-.002l-.01.165Zm-.05-.003.009-.165h-.006l-.003.165Zm-.05 0 .002-.166h-.003v.165Zm-1.455 0v-.166h-.165v.165h.165Zm0 1.454h.165-.165Zm1.404 1.453-.006.165h.003l.003-.165Zm-3.434 3.486-.003.165h.003v-.165Zm1.45-1.354.165.011v-.002l-.165-.01Zm.003-.05.165.009v-.006l-.165-.003Zm0-.05.166.003v-.003h-.165Zm0-3.485h-.164.165ZM9.727 8.273v-.165.165Zm-1.45 1.355-.165-.011v.002l.165.009Zm-.003.05-.165-.009v.006l.165.003Zm0 .05-.166-.003v.003h.165Zm0 3.485h.164-.165Zm1.404 1.453-.006.165h.003l.003-.165Zm-3.406-3.779v.165h.003l-.003-.165Zm-3.482 0-.003.165h.003v-.165Zm-.045 0-.006.164h.003l.003-.165Zm-1.117-1.16h.165-.165ZM2.74 8.57l-.003-.165h-.003l.006.165Zm.046-.001v-.165h-.003l.003.165Zm3.482 0 .003-.165H6.27v.165Zm.045 0 .006-.164h-.003l-.003.165Zm1.118 1.16h-.165.165Zm-1.115 1.158.004.165h.003l-.007-.165Zm6.895.001-.003.165h.007l-.004-.165Zm-.045 0-.007.164h.004l.003-.165Zm-1.114-1.113-.165.004v.003l.165-.007Zm0-.046h-.166v.003l.165-.003Zm0-1.16v-.165h-.166v.165h.165Zm1.157 0 .003-.165h-.003v.165Zm.045 0 .006-.164h-.003l-.003.165Zm1.117 1.16h-.165.165Zm-1.114 1.158.003.165h.003l-.006-.165Zm-3.53 3.487-.004.165h.008l-.004-.165Zm-.046-.002-.006.165h.002l.004-.165ZM8.57 13.26l-.165.004v.003l.165-.007Zm-.001-.046h-.165v.003l.165-.003Zm0-3.483-.165-.002v.002h.165Zm0-.045-.164-.006v.003l.165.003Zm1.16-1.117v-.165h-.001v.165Zm1.158 1.114.165-.003v-.003l-.165.006Zm.001.046h.165v-.003l-.165.003Zm0 3.482.165.003v-.003h-.165Zm0 .045.164.006v-.003l-.165-.002Zm-1.113 1.116.004.165h.003l-.007-.165Zm-3.5.296-.002.165h.006l-.003-.165Zm.051-.001.004.165h.002l-.006-.165Zm1.398-1.353.165.012v-.003l-.165-.009Zm.003-.05.165.008v-.006l-.165-.002Zm0-.05.166.002v-.003h-.165Zm0-1.454h.166v-.165h-.165v.165Zm-1.454 0v-.165.165Zm-1.454 1.454h.165-.165Zm1.404 1.453-.006.165h.003l.003-.165Zm.048-.293-.004.165h.008l-.004-.165Zm-.044-.002-.006.165h.002l.004-.165Zm-1.11-1.065-.165.01v.003l.165-.013Zm-.003-.048-.165.003v.007l.165-.01Zm0-.045h-.165v.003l.165-.003Zm1.114-1.159-.004-.165H6.22l.007.165Zm.045 0v-.165H6.27l.003.165Zm1.16 0h.165v-.165h-.165v.165Zm0 1.156.165.003v-.003h-.165Zm0 .045.164.006v-.003l-.165-.003ZM6.365 14.37l.01.164h.003l-.013-.164Zm-.047.002.004.165h.005l-.009-.165Zm3.41-9.965a1.62 1.62 0 0 0 1.62-1.619h-.33a1.29 1.29 0 0 1-1.29 1.289v.33Zm1.62-1.619a1.62 1.62 0 0 0-1.62-1.619v.33c.713 0 1.29.578 1.29 1.29h.33Zm-1.62-1.619a1.62 1.62 0 0 0-1.615 1.508l.33.022a1.29 1.29 0 0 1 1.286-1.2v-.33Zm-1.615 1.51-.003.05.33.017.003-.05-.33-.017Zm-.003.056v.05l.33.006v-.05l-.33-.006Zm0 .053v1.454h.33V2.787h-.33Zm.164 1.619h1.455v-.33H8.273v.33Zm-2 3.485a1.62 1.62 0 0 0 1.615-1.508l-.33-.023a1.29 1.29 0 0 1-1.285 1.201v.33Zm1.615-1.51.003-.05-.33-.017-.003.05.33.016Zm.003-.056v-.05l-.33-.006v.05l.33.006Zm0-.053V2.787h-.33v3.485h.33Zm0-3.485a1.62 1.62 0 0 0-1.619-1.619v.33c.713 0 1.29.578 1.29 1.29h.33Zm-1.62-1.619a1.62 1.62 0 0 0-1.614 1.508l.33.023a1.29 1.29 0 0 1 1.285-1.2v-.33ZM4.658 2.68l-.003.05.33.017.003-.05-.33-.017Zm-.003.056v.05l.33.005v-.05l-.33-.005Zm0 .053v3.485h.33V2.788h-.33Zm0 3.485a1.617 1.617 0 0 0 1.563 1.617l.011-.33a1.288 1.288 0 0 1-1.245-1.287h-.33ZM6.22 7.89l.05.001.006-.33h-.05l-.006.33Zm3.507-4.109h-1.16v.33h1.16v-.33Zm-.994.165V2.79h-.33v1.156h.33Zm0-1.154v-.045l-.33-.005v.045l.33.005Zm0-.042a.995.995 0 0 1 .995-.957v-.33a1.325 1.325 0 0 0-1.324 1.276l.33.011Zm.994-.957c.55 0 .996.446.995.994h.33c0-.73-.592-1.324-1.324-1.324v.33Zm.995.994a.995.995 0 0 1-.955.994l.013.33a1.325 1.325 0 0 0 1.272-1.324h-.33Zm-.952.994h-.046l.007.33h.045l-.006-.33ZM6.276 7.267l-.046-.001-.006.33h.045l.007-.33Zm-.042-.001a.994.994 0 0 1-.955-.953l-.33.013c.027.69.581 1.243 1.272 1.27l.013-.33Zm-.955-.95-.001-.046-.33.006v.047l.33-.007Zm-.001-.043V2.79h-.33v3.483h.33Zm0-3.48v-.045l-.33-.006v.046l.33.005Zm0-.042a.995.995 0 0 1 .994-.958v-.33a1.325 1.325 0 0 0-1.323 1.276l.33.012Zm.994-.958c.537 0 .974.425.994.955l.33-.013a1.325 1.325 0 0 0-1.324-1.272v.33Zm.994.952.001.045.33-.006V2.74l-.33.006Zm.001.042V6.27h.33V2.787h-.33Zm0 3.48v.045l.33.005v-.045l-.33-.005Zm0 .042a.995.995 0 0 1-.955.957l.014.33a1.325 1.325 0 0 0 1.27-1.276l-.33-.011Zm-.951.957h-.047l.007.33h.047l-.007-.33Zm6.897.626a1.619 1.619 0 0 0 1.619-1.62h-.33a1.289 1.289 0 0 1-1.29 1.29l.001.33Zm1.619-1.62a1.62 1.62 0 0 0-1.508-1.614l-.023.329a1.29 1.29 0 0 1 1.2 1.285h.33Zm-1.51-1.614-.05-.003-.018.33.05.002.018-.33Zm-.056-.003-.05-.001-.007.33h.051l.006-.33Zm-.054-.001H9.727v.33h3.485v-.33Zm-3.485 0c-.894 0-1.619.725-1.618 1.619h.33a1.29 1.29 0 0 1 1.289-1.29v-.33ZM8.11 6.273a1.62 1.62 0 0 0 1.507 1.615l.023-.33a1.29 1.29 0 0 1-1.2-1.285h-.33Zm1.51 1.615.05.003.017-.33-.05-.003-.017.33Zm.055.003h.051l.006-.33h-.05l-.007.33Zm.054 0h3.485v-.33H9.728v.33Zm-5.321-.164V6.273h-.33v1.454h.33Zm0-1.454a1.62 1.62 0 0 0-1.62-1.62v.33c.713.001 1.29.579 1.29 1.29h.33Zm-1.62-1.62a1.62 1.62 0 0 0-1.619 1.62h.33c0-.711.577-1.289 1.29-1.29v-.33Zm-1.619 1.62a1.62 1.62 0 0 0 1.508 1.615l.023-.33a1.29 1.29 0 0 1-1.2-1.285h-.33Zm1.51 1.615.05.002.018-.33-.05-.002-.018.33Zm.056.003h.05l.007-.33H2.74l-.006.33Zm.054 0h1.454v-.33H2.788v.33Zm10.425-.624H9.73v.33h3.482v-.33Zm-3.48 0H9.69l-.006.33h.045l.006-.33Zm-.041 0a.995.995 0 0 1-.959-.994h-.33c0 .713.565 1.297 1.277 1.323l.012-.33Zm-.959-.994c0-.536.424-.973.956-.994l-.013-.33a1.324 1.324 0 0 0-1.273 1.324h.33Zm.952-.994.046-.001-.007-.33-.045.001.006.33Zm.043-.001h3.482v-.33H9.728v.33Zm3.479 0h.045l.006-.33h-.045l-.006.33Zm.042 0c.534.02.959.46.958.994h.33c0-.713-.565-1.297-1.276-1.323l-.012.33Zm.958.995a.995.995 0 0 1-.995.994l.001.33a1.325 1.325 0 0 0 1.324-1.325h-.33Zm-11.414.994h-.045l-.006.33h.045l.006-.33Zm-.042 0a.995.995 0 0 1-.958-.994h-.33c0 .713.565 1.297 1.276 1.323l.012-.33Zm-.958-.994c0-.549.445-.994.995-.995v-.33a1.325 1.325 0 0 0-1.325 1.325h.33Zm.994-.995c.538 0 .975.425.995.956l.33-.013a1.325 1.325 0 0 0-1.324-1.273v.33Zm.995.952v.046l.33-.006v-.046l-.33.006Zm0 .043v1.16h.33v-1.16h-.33Zm.165.994H2.79v.33h1.157v-.33Zm2.325 4.08a1.62 1.62 0 0 0 1.619-1.62h-.33a1.29 1.29 0 0 1-1.29 1.29l.001.33Zm1.619-1.62a1.62 1.62 0 0 0-1.507-1.615l-.023.33a1.29 1.29 0 0 1 1.2 1.285h.33Zm-1.51-1.615-.05-.002-.017.33.05.002.017-.33Zm-.055-.003h-.051l-.006.33h.05l.007-.33Zm-.054 0H2.787v.33h3.485v-.33Zm-3.485 0a1.619 1.619 0 0 0-1.619 1.619h.33a1.289 1.289 0 0 1 1.289-1.29v-.33Zm-1.62 1.618a1.62 1.62 0 0 0 1.507 1.615l.024-.33a1.29 1.29 0 0 1-1.2-1.285h-.33Zm1.51 1.615.05.002.018-.329-.05-.003-.018.33Zm.056.003h.05l.007-.33H2.74l-.006.33Zm.054 0h3.484v-.33H2.788v.33Zm10.425 0a1.62 1.62 0 0 0 1.619-1.618h-.33a1.29 1.29 0 0 1-1.29 1.289v.33Zm1.619-1.618a1.62 1.62 0 0 0-1.508-1.616l-.023.33a1.29 1.29 0 0 1 1.2 1.286h.33Zm-1.51-1.616-.05-.002-.018.33.05.002.018-.33Zm-.056-.003h-.05l-.007.33h.051l.006-.33Zm-.054 0h-1.454v.33h1.454v-.33Zm-1.619.164v1.455h.33V8.273h-.33Zm0 1.455a1.62 1.62 0 0 0 1.563 1.618l.012-.33a1.289 1.289 0 0 1-1.245-1.288h-.33Zm1.566 1.618h.05l.006-.33h-.05l-.006.33Zm-3.43 3.486a1.62 1.62 0 0 0 1.614-1.508l-.33-.022a1.29 1.29 0 0 1-1.285 1.2v.33Zm1.614-1.51.002-.05-.33-.017-.002.05.33.017Zm.003-.056v-.05l-.33-.006v.05l.33.006Zm0-.053V9.728h-.33v3.485h.33Zm0-3.485a1.62 1.62 0 0 0-1.619-1.62v.33a1.29 1.29 0 0 1 1.29 1.29h.33Zm-1.62-1.62a1.62 1.62 0 0 0-1.614 1.509l.33.022a1.29 1.29 0 0 1 1.285-1.2v-.33ZM8.113 9.62l-.003.05.33.017.003-.05-.33-.017Zm-.003.056v.05l.33.005v-.05l-.33-.005Zm0 .053v3.485h.33V9.728h-.33Zm0 3.485a1.618 1.618 0 0 0 1.563 1.618l.011-.33a1.289 1.289 0 0 1-1.245-1.288h-.33Zm1.566 1.618h.05l.006-.33h-.05l-.006.33Zm-3.403-4.109H2.79v.33h3.482v-.33Zm-3.479 0h-.045l-.006.33h.045l.006-.33Zm-.042 0a.995.995 0 0 1-.958-.994h-.33c0 .713.565 1.297 1.276 1.323l.012-.33Zm-.958-.995a.993.993 0 0 1 .955-.993l-.013-.33a1.325 1.325 0 0 0-1.272 1.324h.33Zm.952-.993.045-.001-.006-.33h-.046l.007.33Zm.042-.001H6.27v-.33H2.787v.33Zm3.48 0h.044l.006-.33h-.045l-.006.33Zm.041 0c.535.02.959.46.959.994h.33c0-.713-.565-1.297-1.277-1.323l-.012.33Zm.959.995a.995.995 0 0 1-.956.993l.013.33a1.325 1.325 0 0 0 1.273-1.324h-.33Zm-.953.993-.046.001.007.33h.046l-.007-.33Zm6.902.001h-.046l-.006.33h.045l.007-.33Zm-.043 0a.995.995 0 0 1-.955-.954l-.33.013c.027.69.582 1.243 1.272 1.27l.013-.33Zm-.955-.95v-.047l-.33.006v.047l.33-.007Zm0-.044v-1.16h-.33v1.16h.33Zm-.166-.995h1.158v-.33h-1.158v.33Zm1.155 0h.045l.006-.33h-.045l-.006.33Zm.042 0c.534.02.959.46.958.995h.33c0-.713-.565-1.298-1.276-1.324l-.012.33Zm.958.995a.994.994 0 0 1-.956.993l.013.33a1.325 1.325 0 0 0 1.273-1.323h-.33Zm-.953.993-.045.001.007.33h.045l-.006-.33Zm-3.522 3.486h-.046l-.008.33h.046l.008-.33Zm-.043 0a.995.995 0 0 1-.955-.954l-.33.013c.027.69.581 1.243 1.272 1.27l.013-.33Zm-.955-.95-.001-.047-.33.006v.047l.33-.007Zm-.001-.044V9.73h-.33v3.483h.33Zm0-3.48v-.045l-.33-.006v.046l.33.005Zm0-.042a.995.995 0 0 1 .994-.958v-.33A1.325 1.325 0 0 0 8.405 9.68l.33.012Zm.994-.958c.537 0 .974.425.994.956l.33-.013a1.325 1.325 0 0 0-1.324-1.273v.33Zm.994.952.001.046.33-.006V9.68l-.33.006Zm.001.043v3.482h.33V9.728h-.33Zm0 3.48v.045l.33.005v-.045l-.33-.005Zm0 .042a.995.995 0 0 1-.955.956l.014.33a1.325 1.325 0 0 0 1.27-1.275l-.33-.011Zm-.952.956-.047.002.009.33.046-.002-.008-.33Zm-3.492.626.05-.001-.006-.33h-.05l.006.33Zm.053-.002a1.62 1.62 0 0 0 1.557-1.505l-.33-.023A1.29 1.29 0 0 1 6.32 14.5l.012.33Zm1.557-1.508.003-.05-.33-.018-.003.05.33.018Zm.003-.056v-.05l-.33-.006v.05l.33.005Zm0-.054V11.76h-.33v1.453h.33Zm-.164-1.618H6.272v.33h1.455v-.33Zm-1.455 0c-.894 0-1.62.725-1.619 1.619h.33a1.29 1.29 0 0 1 1.29-1.289v-.33Zm-1.619 1.619c0 .875.694 1.588 1.563 1.618l.011-.33a1.289 1.289 0 0 1-1.244-1.288h-.33ZM6.22 14.83h.053l.005-.33h-.053l-.005.33Zm.056-.623-.044-.002-.009.33.044.002.009-.33Zm-.042-.002a.994.994 0 0 1-.952-.913l-.33.026a1.324 1.324 0 0 0 1.269 1.217l.013-.33Zm-.952-.91-.003-.047-.33.019.003.047.33-.019Zm-.003-.04v-.046l-.33.006v.045l.33-.006Zm0-.043c0-.535.423-.973.955-.994l-.013-.33a1.325 1.325 0 0 0-1.272 1.324h.33Zm.952-.994h.046l-.007-.33h-.046l.007.33Zm.042 0h1.16v-.33h-1.16v.33Zm.995-.165v1.156h.33v-1.157h-.33Zm0 1.153v.045l.33.006v-.045l-.33-.006Zm0 .042a.995.995 0 0 1-.915.955l.025.33a1.325 1.325 0 0 0 1.22-1.273l-.33-.012Zm-.912.955-.048.003.02.33.047-.004-.02-.33Zm-.042.002-.047.002.008.33.047-.002-.008-.33Z" fill="#B0BECA"/></svg>