<svg width="18" height="7" xmlns="http://www.w3.org/2000/svg"><path d="M5.879 6.277 3.413.302A.495.495 0 0 0 2.5.304L.035 6.28a.532.532 0 0 0 .102.534.486.486 0 0 0 .55.112.486.486 0 0 0 .262-.268l.693-1.684h2.63l.69 1.677a.44.44 0 0 0 .087.143.514.514 0 0 0 .376.173c.015 0 .099-.013.113-.016a.48.48 0 0 0 .338-.286.506.506 0 0 0 .004-.385l-.001-.003ZM2.054 3.981l.905-2.19.903 2.19H2.054Zm9.603.015a1.472 1.472 0 0 0-.573-.665L11 3.282a1.703 1.703 0 0 0 .336-.803 3.74 3.74 0 0 0 .04-.493 2.621 2.621 0 0 0-.141-.868 1.48 1.48 0 0 0-.45-.648 1.878 1.878 0 0 0-.734-.36A3.996 3.996 0 0 0 9.06 0H7.333a.433.433 0 0 0-.19.041.499.499 0 0 0-.137.1.442.442 0 0 0-.107.17.72.72 0 0 0-.036.186l.006 5.948a.444.444 0 0 0 .037.227c.023.053.053.1.088.142a.443.443 0 0 0 .335.153h1.965c.216 0 .408-.007.577-.02a4.99 4.99 0 0 0 .476-.059 2.052 2.052 0 0 0 .743-.271 1.472 1.472 0 0 0 .567-.661c.058-.136.104-.289.134-.453a2.62 2.62 0 0 0 .04-.525 2.714 2.714 0 0 0-.04-.53 2.133 2.133 0 0 0-.134-.452ZM10.32 1.374a.483.483 0 0 1 .064.133 1.51 1.51 0 0 1 .065.49 1.526 1.526 0 0 1-.065.474.497.497 0 0 1-.064.133.716.716 0 0 1-.101.115.728.728 0 0 1-.17.11 1.171 1.171 0 0 1-.245.083 2.42 2.42 0 0 1-.33.054 4.049 4.049 0 0 1-.414.018H7.79l.004-1.99H9.06c.15 0 .289.005.414.018.12.012.23.03.33.053.092.022.174.05.245.084a.653.653 0 0 1 .271.225ZM9.29 5.97h-1.5l.004-1.99h1.444l.026-.003c.184.014.367.006.515.016.137.01.262.024.374.043.105.02.197.042.275.07.073.025.14.055.192.085a.815.815 0 0 1 .11.09.363.363 0 0 1 .077.108c.028.06.053.138.075.231.02.092.03.21.027.36.003.143-.006.262-.027.353a1.03 1.03 0 0 1-.075.228.394.394 0 0 1-.08.114.776.776 0 0 1-.1.082c-.06.035-.126.066-.2.091-.077.028-.17.051-.274.07-.111.02-.235.032-.372.04a8.85 8.85 0 0 1-.491.012Zm8.538-.153a.558.558 0 0 1-.051.377.54.54 0 0 1-.112.141 2.47 2.47 0 0 1-.418.282 2.689 2.689 0 0 1-.473.197 3.322 3.322 0 0 1-.53.116 4.183 4.183 0 0 1-.583.038c-.242 0-.473-.018-.687-.053a3.014 3.014 0 0 1-.611-.167 2.571 2.571 0 0 1-.53-.28 2.389 2.389 0 0 1-.441-.394 2.64 2.64 0 0 1-.345-.504 3.222 3.222 0 0 1-.244-.606 4.677 4.677 0 0 1-.145-.696 5.932 5.932 0 0 1-.05-.786c0-.276.017-.54.05-.786s.082-.479.145-.693a3.28 3.28 0 0 1 .243-.605c.098-.187.215-.358.346-.508a2.425 2.425 0 0 1 .972-.672c.189-.073.394-.128.61-.164a4.47 4.47 0 0 1 1.27-.015c.186.026.364.065.53.116.167.052.326.118.472.194.15.08.29.172.416.278a.613.613 0 0 1 .112.141.514.514 0 0 1 .062.184.558.558 0 0 1-.074.364.508.508 0 0 1-.131.14.398.398 0 0 1-.16.068.398.398 0 0 1-.17-.01.45.45 0 0 1-.148-.075 1.523 1.523 0 0 0-.286-.192 1.916 1.916 0 0 0-.34-.137 2.793 2.793 0 0 0-.404-.086 3.722 3.722 0 0 0-1.001.01 2.295 2.295 0 0 0-.452.115c-.136.052-.26.116-.371.19a1.532 1.532 0 0 0-.515.588c-.065.126-.12.268-.165.423a3.22 3.22 0 0 0-.102.517 5.135 5.135 0 0 0-.034.615c0 .22.01.426.034.615.022.19.057.363.102.517.045.155.1.297.165.424.065.125.14.238.224.336.082.091.18.177.29.251.112.075.236.138.372.19.135.051.287.09.452.116.307.048.682.051 1.002.011.144-.018.278-.046.403-.083a1.766 1.766 0 0 0 .621-.325.377.377 0 0 1 .324-.089.425.425 0 0 1 .29.208c.026.04.05.1.066.164Z" fill="#EF8600" fill-rule="evenodd"/></svg>