<svg width="20" height="20" xmlns="http://www.w3.org/2000/svg"><path d="M15.457 2.707c.363 0 .677.132.94.396.264.263.396.577.396.94v.914c0 .293-.082.554-.246.782-.164.229-.381.39-.65.484v11.32c0 .375-.132.694-.396.958a1.305 1.305 0 0 1-.958.395h-9c-.363 0-.677-.131-.94-.395a1.305 1.305 0 0 1-.396-.958V6.223a1.36 1.36 0 0 1-.66-.484 1.277 1.277 0 0 1-.254-.782v-.914c0-.363.132-.677.395-.94.264-.264.583-.396.958-.396h3.147V2.25c0-.375.132-.694.395-.958.264-.264.583-.396.958-.396h1.811c.363 0 .677.132.94.396.264.264.396.583.396.958v.457h3.164Zm-6.75-.457v.457h2.69V2.25a.442.442 0 0 0-.132-.325.422.422 0 0 0-.308-.132h-1.81a.422.422 0 0 0-.308.132.442.442 0 0 0-.132.325ZM14.543 18a.442.442 0 0 0 .325-.132.442.442 0 0 0 .132-.325V6.293H5.104v11.25a.44.44 0 0 0 .131.325c.088.088.19.132.308.132h9Zm1.353-13.043v-.914a.422.422 0 0 0-.131-.308.422.422 0 0 0-.308-.131H4.647a.422.422 0 0 0-.308.131.422.422 0 0 0-.132.308v.914c0 .117.044.22.132.308a.42.42 0 0 0 .307.131h10.811c.117 0 .22-.043.308-.131a.422.422 0 0 0 .131-.308Zm-4.146 2.25c.129 0 .237.044.325.132a.42.42 0 0 1 .132.307v9a.442.442 0 0 1-.132.326.442.442 0 0 1-.325.132.442.442 0 0 1-.325-.132.442.442 0 0 1-.132-.326v-9c0-.117.044-.22.132-.307a.442.442 0 0 1 .325-.132Zm-3.396 0c.117 0 .22.044.307.132a.42.42 0 0 1 .132.307v9a.442.442 0 0 1-.132.326.422.422 0 0 1-.307.132.442.442 0 0 1-.326-.132.442.442 0 0 1-.132-.326v-9c0-.117.044-.22.132-.307a.442.442 0 0 1 .326-.132Z" fill="#FFF" stroke="#FFF" stroke-width=".3"/></svg>