<svg width="18" height="18" xmlns="http://www.w3.org/2000/svg"><defs><filter x="-4.3%" y="-14.8%" width="108.5%" height="129.6%" filterUnits="objectBoundingBox" id="a"><feOffset dy="1" in="SourceAlpha" result="shadowOffsetOuter1"/><feGaussianBlur stdDeviation=".5" in="shadowOffsetOuter1" result="shadowBlurOuter1"/><feColorMatrix values="0 0 0 0 0.0784313725 0 0 0 0 0.223529412 0 0 0 0 0.364705882 0 0 0 0.1 0" in="shadowBlurOuter1" result="shadowMatrixOuter1"/><feMerge><feMergeNode in="shadowMatrixOuter1"/><feMergeNode in="SourceGraphic"/></feMerge></filter></defs><g transform="translate(-10 -5)" filter="url(#a)" fill="#14B2E2"><path d="M18.602 20.203c.49 0 .97-.013 1.441-.039.471-.026.927-.065 1.367-.117.44-.052.86-.116 1.262-.192.4-.075.776-.16 1.125-.253.349-.1.663-.206.941-.32a4.27 4.27 0 0 0 .715-.368 1.9 1.9 0 0 0 .563-.523c.125-.188.187-.386.187-.594V8.203c0-.208-.062-.406-.187-.594a1.898 1.898 0 0 0-.563-.523 4.233 4.233 0 0 0-.715-.367 8.792 8.792 0 0 0-.941-.32 15.15 15.15 0 0 0-1.125-.254c-.401-.076-.822-.14-1.262-.192-.44-.052-.896-.091-1.367-.117a26.13 26.13 0 0 0-2.883 0c-.471.026-.928.065-1.37.117a18.57 18.57 0 0 0-1.267.192c-.4.075-.776.16-1.125.253a8.516 8.516 0 0 0-.937.32 4.286 4.286 0 0 0-.711.368 1.9 1.9 0 0 0-.563.523 1.053 1.053 0 0 0-.187.594v9.594c0 .208.063.406.188.594.124.187.312.362.562.523.198.13.435.253.71.367.277.115.59.222.938.32.35.094.724.179 1.125.254.401.076.823.14 1.266.192.443.052.9.091 1.371.117.472.026.952.04 1.442.04Zm0-10.406c-.474 0-.938-.012-1.391-.035a20.254 20.254 0 0 1-2.523-.29c-.386-.07-.743-.152-1.07-.245-.72-.198-1.203-.396-1.45-.594-.247-.198-.371-.341-.371-.43 0-.094.124-.24.371-.437.247-.198.73-.396 1.45-.594.327-.094.684-.176 1.07-.246a19.24 19.24 0 0 1 2.523-.29 26.926 26.926 0 0 1 2.777 0 20.256 20.256 0 0 1 2.524.29c.383.07.74.152 1.074.246.719.198 1.2.396 1.445.594.245.198.367.343.367.437 0 .089-.122.232-.367.43-.245.198-.726.396-1.445.594a11.94 11.94 0 0 1-1.074.246 19.437 19.437 0 0 1-2.524.289c-.455.023-.918.035-1.386.035Zm0 3.203a24.24 24.24 0 0 1-2.704-.148 17.552 17.552 0 0 1-1.21-.176c-.386-.07-.743-.153-1.07-.246-.72-.198-1.203-.396-1.45-.594-.247-.198-.371-.344-.371-.438V9.344c.198.125.43.242.7.351.267.11.568.211.901.305.35.099.724.185 1.125.258a22.237 22.237 0 0 0 2.637.305 26.13 26.13 0 0 0 2.883 0 21.934 21.934 0 0 0 2.629-.305c.4-.073.776-.159 1.125-.258.338-.094.64-.195.906-.305.266-.11.498-.226.695-.351v2.054c0 .094-.122.24-.367.438s-.726.396-1.445.594a11.94 11.94 0 0 1-1.074.246c-.383.07-.785.129-1.207.176a24.678 24.678 0 0 1-2.703.148Zm0 3.203c-.474 0-.938-.013-1.391-.039-.453-.026-.89-.064-1.313-.113a19.24 19.24 0 0 1-1.21-.18c-.386-.07-.743-.152-1.07-.246-.72-.198-1.203-.396-1.45-.594-.247-.198-.371-.34-.371-.43v-2.054c.198.125.43.242.7.351.267.11.568.211.901.305.35.094.724.179 1.125.254.401.076.823.138 1.266.188a26.13 26.13 0 0 0 5.621 0c.44-.05.86-.112 1.262-.188.4-.075.776-.16 1.125-.254.338-.094.64-.195.906-.305.266-.109.498-.226.695-.351v2.055c0 .088-.122.231-.367.43-.245.197-.726.395-1.445.593a11.94 11.94 0 0 1-1.074.246c-.383.07-.785.13-1.207.18a24.305 24.305 0 0 1-2.703.152Zm0 3.195c-.474 0-.938-.011-1.391-.035a20.254 20.254 0 0 1-2.523-.289c-.386-.07-.743-.152-1.07-.246-.72-.198-1.203-.396-1.45-.594-.247-.198-.371-.343-.371-.437V15.75c.198.12.43.234.7.344.267.11.568.21.901.304.35.1.724.185 1.125.258.401.073.823.136 1.266.188.443.052.9.09 1.371.117a26.13 26.13 0 0 0 2.883 0 21.934 21.934 0 0 0 2.629-.305c.4-.073.776-.159 1.125-.258.338-.093.64-.195.906-.304a5.09 5.09 0 0 0 .695-.344v2.047c0 .094-.122.24-.367.437-.245.198-.726.396-1.445.594a11.94 11.94 0 0 1-1.074.246 19.437 19.437 0 0 1-2.524.29c-.455.023-.918.034-1.386.034Z"/></g></svg>