<svg width="21" height="24" xmlns="http://www.w3.org/2000/svg"><path d="M19.531 2.307a5.511 5.511 0 0 0-.977-.52 10.97 10.97 0 0 0-1.283-.445c-.93-.271-1.997-.474-3.199-.61A33.566 33.566 0 0 0 10.314.53c-1.303 0-2.556.068-3.757.203-1.202.136-2.269.339-3.2.61-.474.135-.9.283-1.282.444-.38.16-.707.334-.977.52-.424.288-.703.58-.838.877-.136.296-.203.546-.203.749v.685c0 .305.089.669.266 1.092.178.423.377.796.597 1.117l6.703 10.03c.17.27.317.617.444 1.04.127.424.19.788.19 1.092v4.114c0 .118.03.228.09.33.059.101.14.186.24.254a.64.64 0 0 0 .166.076.69.69 0 0 0 .19.025.48.48 0 0 0 .153-.025l.152-.051 2.742-1.371a.596.596 0 0 0 .28-.241.688.688 0 0 0 .101-.369v-2.742c0-.304.064-.668.19-1.092.127-.423.276-.77.445-1.04l6.703-10.03c.22-.321.419-.694.597-1.117.177-.423.266-.787.266-1.092v-.685c0-.203-.067-.453-.203-.75-.135-.296-.415-.588-.838-.875Zm-15.793.355c.864-.254 1.862-.448 2.996-.584a30.213 30.213 0 0 1 3.58-.203c1.253 0 2.446.068 3.58.203 1.135.136 2.133.33 2.997.584.948.27 1.57.533 1.866.787.296.254.444.415.444.483 0 .084-.148.254-.444.507-.296.254-.918.517-1.866.788-.864.237-1.862.423-2.996.558a30.213 30.213 0 0 1-3.58.203 30.07 30.07 0 0 1-3.58-.203C5.6 5.65 4.602 5.464 3.738 5.227c-.948-.271-1.57-.534-1.866-.788-.296-.253-.444-.423-.444-.507 0-.068.148-.229.444-.483.296-.254.918-.516 1.866-.787Zm8.125 13.432c-.237.372-.44.838-.61 1.396-.168.559-.253 1.058-.253 1.498v2.31l-1.371.686v-2.996c0-.44-.085-.94-.254-1.498-.17-.558-.372-1.024-.61-1.396L2.089 6.09c.186.084.385.16.597.228.211.068.435.136.672.203.931.271 1.998.479 3.2.623 1.201.143 2.454.215 3.757.215 1.304 0 2.556-.072 3.758-.215 1.202-.144 2.268-.352 3.2-.623.236-.067.46-.135.672-.203a5.47 5.47 0 0 0 .597-.228l-6.678 10.004Z" fill="#94A1AD" fill-rule="evenodd"/></svg>