<svg width="166" height="30" fill="none" xmlns="http://www.w3.org/2000/svg"><path d="M159.5.5H6.5a6 6 0 0 0-6 6v17a6 6 0 0 0 6 6h153a6 6 0 0 0 6-6v-17a6 6 0 0 0-6-6Z" fill="#fff" fill-opacity=".85" stroke="#DBE4EC"/><path d="M33.064 19v-3.816h1.704c.296 0 .608-.036.936-.108.328-.072.63-.196.906-.372a2.06 2.06 0 0 0 .678-.72c.176-.304.264-.688.264-1.152 0-.44-.082-.81-.246-1.11-.164-.3-.384-.54-.66-.72a2.78 2.78 0 0 0-.948-.384 5.363 5.363 0 0 0-1.122-.114h-2.52V19h1.008Zm1.704-4.752h-1.704V11.44h1.704c.504 0 .914.114 1.23.342.316.228.474.582.474 1.062 0 .48-.158.834-.474 1.062-.316.228-.726.342-1.23.342Zm6.912 4.896c.432 0 .832-.072 1.2-.216.368-.144.684-.346.948-.606.264-.26.472-.57.624-.93.152-.36.228-.76.228-1.2 0-.44-.076-.84-.228-1.2-.152-.36-.36-.67-.624-.93a2.773 2.773 0 0 0-.948-.606 3.265 3.265 0 0 0-1.2-.216c-.432 0-.832.072-1.2.216a2.773 2.773 0 0 0-.948.606c-.264.26-.472.57-.624.93-.152.36-.228.76-.228 1.2 0 .44.076.84.228 1.2.152.36.36.67.624.93s.58.462.948.606c.368.144.768.216 1.2.216Zm0-.864a2.01 2.01 0 0 1-.822-.162 1.913 1.913 0 0 1-.63-.444 1.915 1.915 0 0 1-.402-.66 2.38 2.38 0 0 1-.138-.822c0-.296.046-.57.138-.822.092-.252.226-.472.402-.66.176-.188.386-.336.63-.444a2.01 2.01 0 0 1 .822-.162c.304 0 .578.054.822.162.244.108.454.256.63.444s.31.408.402.66c.092.252.138.526.138.822 0 .296-.046.57-.138.822a1.915 1.915 0 0 1-.402.66 1.913 1.913 0 0 1-.63.444 2.01 2.01 0 0 1-.822.162Zm6.516.72 1.416-4.32h.024L51.232 19h.924l1.812-5.616H52.96l-1.272 4.32h-.024l-1.476-4.32h-.984l-1.452 4.32h-.024l-1.284-4.32h-1.032L47.236 19h.96Zm9.348.144c.528 0 .992-.086 1.392-.258.4-.172.768-.474 1.104-.906l-.708-.552c-.224.28-.476.492-.756.636-.28.144-.624.216-1.032.216-.256 0-.492-.048-.708-.144a1.802 1.802 0 0 1-.564-.39 2.004 2.004 0 0 1-.39-.576c-.1-.22-.158-.45-.174-.69h4.536v-.3c0-.464-.064-.878-.192-1.242a2.586 2.586 0 0 0-.546-.924 2.341 2.341 0 0 0-.846-.576 2.867 2.867 0 0 0-1.08-.198c-.416 0-.8.072-1.152.216a2.697 2.697 0 0 0-.912.606c-.256.26-.456.572-.6.936a3.218 3.218 0 0 0-.216 1.194c0 .408.066.792.198 1.152.132.36.32.672.564.936.244.264.542.474.894.63.352.156.748.234 1.188.234Zm1.692-3.456h-3.528c.064-.48.256-.864.576-1.152.32-.288.74-.432 1.26-.432s.928.144 1.224.432c.296.288.452.672.468 1.152ZM62.632 19v-2.736c0-.648.13-1.158.39-1.53.26-.372.678-.558 1.254-.558.176 0 .344.024.504.072l.06-.948a.844.844 0 0 0-.192-.048 2.245 2.245 0 0 0-1.38.318c-.16.1-.298.214-.414.342a1.62 1.62 0 0 0-.27.396h-.024c0-.16-.004-.316-.012-.468a8.675 8.675 0 0 1-.012-.456h-.888c0 .184.008.388.024.612.016.224.024.464.024.72V19h.936Zm5.592.144c.528 0 .992-.086 1.392-.258.4-.172.768-.474 1.104-.906l-.708-.552c-.224.28-.476.492-.756.636-.28.144-.624.216-1.032.216-.256 0-.492-.048-.708-.144a1.802 1.802 0 0 1-.564-.39 2.004 2.004 0 0 1-.39-.576c-.1-.22-.158-.45-.174-.69h4.536v-.3c0-.464-.064-.878-.192-1.242a2.586 2.586 0 0 0-.546-.924 2.341 2.341 0 0 0-.846-.576 2.867 2.867 0 0 0-1.08-.198c-.416 0-.8.072-1.152.216a2.697 2.697 0 0 0-.912.606c-.256.26-.456.572-.6.936a3.218 3.218 0 0 0-.216 1.194c0 .408.066.792.198 1.152.132.36.32.672.564.936.244.264.542.474.894.63.352.156.748.234 1.188.234Zm1.692-3.456h-3.528c.064-.48.256-.864.576-1.152.32-.288.74-.432 1.26-.432s.928.144 1.224.432c.296.288.452.672.468 1.152Zm4.944 3.456c.504 0 .946-.11 1.326-.33.38-.22.658-.49.834-.81h.024V19h.936V9.928h-.936V14.2h-.024a2.76 2.76 0 0 0-.894-.708 2.498 2.498 0 0 0-1.122-.252c-.44 0-.842.074-1.206.222a2.686 2.686 0 0 0-.93.618 2.847 2.847 0 0 0-.6.936c-.144.36-.216.752-.216 1.176 0 .424.072.816.216 1.176.144.36.342.672.594.936.252.264.55.47.894.618.344.148.712.222 1.104.222Zm.192-.864a2.01 2.01 0 0 1-.822-.162 1.913 1.913 0 0 1-.63-.444 1.915 1.915 0 0 1-.402-.66 2.38 2.38 0 0 1-.138-.822c0-.296.046-.57.138-.822.092-.252.226-.472.402-.66.176-.188.386-.336.63-.444a2.01 2.01 0 0 1 .822-.162c.304 0 .578.054.822.162.244.108.454.256.63.444s.31.408.402.66c.092.252.138.526.138.822 0 .296-.046.57-.138.822a1.915 1.915 0 0 1-.402.66 1.913 1.913 0 0 1-.63.444 2.01 2.01 0 0 1-.822.162Zm11.064.864c.392 0 .76-.074 1.104-.222.344-.148.642-.354.894-.618s.45-.576.594-.936c.144-.36.216-.752.216-1.176 0-.424-.072-.816-.216-1.176a2.847 2.847 0 0 0-.6-.936 2.686 2.686 0 0 0-.93-.618 3.173 3.173 0 0 0-1.206-.222c-.408 0-.782.084-1.122.252a2.76 2.76 0 0 0-.894.708h-.024V9.928h-.936V19h.936v-.996h.024c.176.32.454.59.834.81.38.22.822.33 1.326.33Zm-.192-.864a2.01 2.01 0 0 1-.822-.162 1.913 1.913 0 0 1-.63-.444 1.915 1.915 0 0 1-.402-.66 2.38 2.38 0 0 1-.138-.822c0-.296.046-.57.138-.822.092-.252.226-.472.402-.66.176-.188.386-.336.63-.444a2.01 2.01 0 0 1 .822-.162c.304 0 .578.054.822.162.244.108.454.256.63.444s.31.408.402.66c.092.252.138.526.138.822 0 .296-.046.57-.138.822a1.915 1.915 0 0 1-.402.66 1.913 1.913 0 0 1-.63.444 2.01 2.01 0 0 1-.822.162Zm4.644 3.6c.28 0 .518-.038.714-.114.196-.076.364-.184.504-.324s.26-.308.36-.504c.1-.196.198-.414.294-.654l2.712-6.9h-1.02l-1.668 4.404h-.024l-1.74-4.404h-1.092l2.328 5.652-.384 1.056c-.104.28-.228.504-.372.672-.144.168-.368.252-.672.252-.136 0-.256-.006-.36-.018a1.106 1.106 0 0 1-.3-.078l-.12.816c.128.064.266.104.414.12.148.016.29.024.426.024Zm13.14-2.664c.552 0 1.098-.064 1.638-.192a5.991 5.991 0 0 0 1.542-.6v-4.176h-2.964v.936h1.956v2.604c-.312.16-.656.282-1.032.366a4.954 4.954 0 0 1-1.08.126 3.75 3.75 0 0 1-1.428-.264 3.231 3.231 0 0 1-1.11-.738 3.378 3.378 0 0 1-.72-1.122 3.761 3.761 0 0 1-.258-1.404c0-.512.086-.984.258-1.416.172-.432.412-.804.72-1.116.308-.312.67-.556 1.086-.732a3.444 3.444 0 0 1 1.356-.264c.432 0 .854.084 1.266.252.412.168.762.408 1.05.72l.756-.792a3.457 3.457 0 0 0-1.386-.864 5.18 5.18 0 0 0-1.614-.252c-.64 0-1.236.108-1.788.324a4.52 4.52 0 0 0-1.452.906 4.126 4.126 0 0 0-.978 1.404 4.58 4.58 0 0 0-.354 1.83c0 .664.112 1.27.336 1.818a4.1 4.1 0 0 0 .942 1.41c.404.392.882.696 1.434.912.552.216 1.16.324 1.824.324Zm7.8-.072c.432 0 .832-.072 1.2-.216.368-.144.684-.346.948-.606.264-.26.472-.57.624-.93.152-.36.228-.76.228-1.2 0-.44-.076-.84-.228-1.2-.152-.36-.36-.67-.624-.93a2.773 2.773 0 0 0-.948-.606 3.265 3.265 0 0 0-1.2-.216c-.432 0-.832.072-1.2.216a2.773 2.773 0 0 0-.948.606c-.264.26-.472.57-.624.93-.152.36-.228.76-.228 1.2 0 .44.076.84.228 1.2.152.36.36.67.624.93s.58.462.948.606c.368.144.768.216 1.2.216Zm0-.864a2.01 2.01 0 0 1-.822-.162 1.913 1.913 0 0 1-.63-.444 1.915 1.915 0 0 1-.402-.66 2.38 2.38 0 0 1-.138-.822c0-.296.046-.57.138-.822.092-.252.226-.472.402-.66.176-.188.386-.336.63-.444a2.01 2.01 0 0 1 .822-.162c.304 0 .578.054.822.162.244.108.454.256.63.444s.31.408.402.66c.092.252.138.526.138.822 0 .296-.046.57-.138.822a1.915 1.915 0 0 1-.402.66 1.913 1.913 0 0 1-.63.444 2.01 2.01 0 0 1-.822.162Zm7.128.864c.432 0 .832-.072 1.2-.216.368-.144.684-.346.948-.606.264-.26.472-.57.624-.93.152-.36.228-.76.228-1.2 0-.44-.076-.84-.228-1.2-.152-.36-.36-.67-.624-.93a2.773 2.773 0 0 0-.948-.606 3.265 3.265 0 0 0-1.2-.216c-.432 0-.832.072-1.2.216a2.773 2.773 0 0 0-.948.606c-.264.26-.472.57-.624.93-.152.36-.228.76-.228 1.2 0 .44.076.84.228 1.2.152.36.36.67.624.93s.58.462.948.606c.368.144.768.216 1.2.216Zm0-.864a2.01 2.01 0 0 1-.822-.162 1.913 1.913 0 0 1-.63-.444 1.915 1.915 0 0 1-.402-.66 2.38 2.38 0 0 1-.138-.822c0-.296.046-.57.138-.822.092-.252.226-.472.402-.66.176-.188.386-.336.63-.444a2.01 2.01 0 0 1 .822-.162c.304 0 .578.054.822.162.244.108.454.256.63.444s.31.408.402.66c.092.252.138.526.138.822 0 .296-.046.57-.138.822a1.915 1.915 0 0 1-.402.66 1.913 1.913 0 0 1-.63.444 2.01 2.01 0 0 1-.822.162Zm6.936.864c.504 0 .946-.11 1.326-.33.38-.22.658-.49.834-.81h.024V19h.936V9.928h-.936V14.2h-.024a2.76 2.76 0 0 0-.894-.708 2.498 2.498 0 0 0-1.122-.252c-.44 0-.842.074-1.206.222a2.686 2.686 0 0 0-.93.618 2.847 2.847 0 0 0-.6.936c-.144.36-.216.752-.216 1.176 0 .424.072.816.216 1.176.144.36.342.672.594.936.252.264.55.47.894.618.344.148.712.222 1.104.222Zm.192-.864a2.01 2.01 0 0 1-.822-.162 1.913 1.913 0 0 1-.63-.444 1.915 1.915 0 0 1-.402-.66 2.38 2.38 0 0 1-.138-.822c0-.296.046-.57.138-.822.092-.252.226-.472.402-.66.176-.188.386-.336.63-.444a2.01 2.01 0 0 1 .822-.162c.304 0 .578.054.822.162.244.108.454.256.63.444s.31.408.402.66c.092.252.138.526.138.822 0 .296-.046.57-.138.822a1.915 1.915 0 0 1-.402.66 1.913 1.913 0 0 1-.63.444 2.01 2.01 0 0 1-.822.162Zm7.932.72a4.425 4.425 0 0 0 2.706-.948c.284-.224.534-.494.75-.81.216-.316.388-.68.516-1.092.128-.412.192-.878.192-1.398 0-.52-.064-.986-.192-1.398a4.051 4.051 0 0 0-.516-1.092 3.634 3.634 0 0 0-.75-.81 4.32 4.32 0 0 0-1.818-.852 4.425 4.425 0 0 0-.888-.096h-3.264V19h3.264Zm-.336-.936h-1.92V11.44h1.92c.488 0 .94.064 1.356.192.416.128.776.326 1.08.594.304.268.544.61.72 1.026.176.416.264.916.264 1.5s-.088 1.084-.264 1.5a2.793 2.793 0 0 1-.72 1.026 2.899 2.899 0 0 1-1.08.594 4.591 4.591 0 0 1-1.356.192Zm7.716 1.08c.432 0 .802-.092 1.11-.276.308-.184.554-.42.738-.708h.024c0 .12.002.258.006.414.004.156.022.298.054.426h.9a6.634 6.634 0 0 1-.084-.972v-2.412c0-.8-.184-1.396-.552-1.788-.368-.392-.968-.588-1.8-.588-.408 0-.81.07-1.206.21-.396.14-.738.358-1.026.654l.588.612c.224-.208.482-.362.774-.462.292-.1.59-.15.894-.15.44 0 .782.104 1.026.312.244.208.366.516.366.924v.168h-.36c-.344 0-.722.016-1.134.048a4.397 4.397 0 0 0-1.152.24 2.185 2.185 0 0 0-.894.588c-.24.264-.36.628-.36 1.092a1.495 1.495 0 0 0 .618 1.242c.188.14.408.246.66.318.252.072.522.108.81.108Zm.156-.792c-.352 0-.646-.074-.882-.222-.236-.148-.354-.398-.354-.75 0-.384.176-.66.528-.828.352-.168.828-.252 1.428-.252h.936v.36a2.18 2.18 0 0 1-.12.654 1.502 1.502 0 0 1-.822.9 1.723 1.723 0 0 1-.714.138Zm6.336.792c.176 0 .362-.016.558-.048.196-.032.374-.084.534-.156l-.036-.852a1.934 1.934 0 0 1-.828.192c-.208 0-.368-.034-.48-.102a.645.645 0 0 1-.252-.276 1.056 1.056 0 0 1-.096-.408 10.006 10.006 0 0 1-.012-.51v-2.808h1.656v-.792h-1.656v-1.596h-.936v1.596h-1.224v.792h1.224v3.084c0 .288.018.55.054.786.036.236.11.434.222.594.112.16.268.284.468.372.2.088.468.132.804.132Zm3.96 0c.432 0 .802-.092 1.11-.276.308-.184.554-.42.738-.708h.024c0 .12.002.258.006.414.004.156.022.298.054.426h.9a6.634 6.634 0 0 1-.084-.972v-2.412c0-.8-.184-1.396-.552-1.788-.368-.392-.968-.588-1.8-.588-.408 0-.81.07-1.206.21-.396.14-.738.358-1.026.654l.588.612c.224-.208.482-.362.774-.462.292-.1.59-.15.894-.15.44 0 .782.104 1.026.312.244.208.366.516.366.924v.168h-.36c-.344 0-.722.016-1.134.048a4.397 4.397 0 0 0-1.152.24 2.185 2.185 0 0 0-.894.588c-.24.264-.36.628-.36 1.092a1.495 1.495 0 0 0 .618 1.242c.188.14.408.246.66.318.252.072.522.108.81.108Zm.156-.792c-.352 0-.646-.074-.882-.222-.236-.148-.354-.398-.354-.75 0-.384.176-.66.528-.828.352-.168.828-.252 1.428-.252h.936v.36a2.18 2.18 0 0 1-.12.654 1.502 1.502 0 0 1-.822.9 1.723 1.723 0 0 1-.714.138Z" fill="#000"/><circle cx="18" cy="15" r="8" fill="#1C0D3F"/><path d="M22.313 16.345c-.031-1.325-.763-2.377-1.88-2.788V11.25a4.594 4.594 0 0 0-.895-.444v4.962c0 .983-.456 1.422-1.189 1.422-.713 0-1.31-.539-1.31-1.44 0-1.006.784-1.62 1.81-1.62a1.64 1.64 0 0 1 .288.018v-.878a1.515 1.515 0 0 0-.288-.023c-1.523 0-2.716.934-2.716 2.505 0 1.51 1.077 2.316 2.277 2.316.57 0 1.061-.193 1.4-.526.34-.332.627-.812.627-1.656v-1.374c.62.31.994 1.06.995 1.918-.003 1.617-1.503 2.983-3.263 2.983-.04 0-.072 0-.113-.002a4.3 4.3 0 0 1-3.127-1.297 4.414 4.414 0 0 1-.96-4.82 4.426 4.426 0 0 1 4.09-2.73v-.901a5.342 5.342 0 0 0-3.77 1.558 5.317 5.317 0 0 0-1.562 3.764 5.328 5.328 0 0 0 5.327 5.327h.113a4.33 4.33 0 0 0 1.284-.197l.005-.001a4.239 4.239 0 0 0 1.616-.93c.798-.738 1.238-1.712 1.241-2.75.002-.003 0-.088 0-.09Z" fill="#fff"/></svg>