<svg width="14" height="13" fill="none" xmlns="http://www.w3.org/2000/svg"><path d="M10.849 12.5a.639.639 0 0 1-.09-.007.38.38 0 0 1-.074-.034L7 10.449l-3.685 2.01a.363.363 0 0 1-.37-.02.391.391 0 0 1-.122-.15.418.418 0 0 1-.02-.2l.67-4.019L.8 5.397a.373.373 0 0 1-.096-.164.344.344 0 0 1 .014-.191.307.307 0 0 1 .102-.157.398.398 0 0 1 .171-.082l4.027-.67L6.686.797a.333.333 0 0 1 .13-.144A.325.325 0 0 1 7 .6c.068 0 .13.018.185.054.054.032.098.08.13.144l1.667 3.336 4.027.67c.064.013.12.04.17.082.05.04.085.093.103.157a.306.306 0 0 1 .007.191.323.323 0 0 1-.089.164L10.527 8.07l.67 4.02a.37.37 0 0 1-.027.198.338.338 0 0 1-.116.15.703.703 0 0 1-.103.048.373.373 0 0 1-.102.014ZM7 9.697a.514.514 0 0 1 .17.048l3.214 1.757-.581-3.493a.363.363 0 0 1 .103-.308l2.317-2.317-3.528-.588a.367.367 0 0 1-.157-.062.479.479 0 0 1-.102-.13L7 1.734l-1.436 2.87a.427.427 0 0 1-.109.13.32.32 0 0 1-.15.062l-3.528.588L4.095 7.7a.363.363 0 0 1 .102.308l-.58 3.493 3.212-1.757a.627.627 0 0 1 .082-.034A.325.325 0 0 1 7 9.697Z" fill="#fff"/></svg>